HIERARCHY
ROOT SimulationBone
{
	OFFSET 0.000000 0.000000 0.000000
	CHANNELS 6 Xposition Yposition Zposition Zrotation Yrotation Xrotation 
	JOINT Hips
	{
		OFFSET 0.000000 0.000000 0.000000
		CHANNELS 6 Xposition Yposition Zposition Zrotation Yrotation Xrotation 
		JOINT LeftUpLeg
		{
			OFFSET 0.103455 1.857827 10.548507
			CHANNELS 3 Zrotation Yrotation Xrotation
			JOINT LeftLeg
			{
				OFFSET 43.500000 -0.000031 0.000008
				CHANNELS 3 Zrotation Yrotation Xrotation
				JOINT LeftFoot
				{
					OFFSET 42.372192 0.000011 -0.000014
					CHANNELS 3 Zrotation Yrotation Xrotation
					JOINT LeftToe
					{
						OFFSET 17.299997 -0.000002 0.000013
						CHANNELS 3 Zrotation Yrotation Xrotation
						End Site
						{
							OFFSET 0.000000 0.000000 0.000000
						}
					}
				}
			}
		}
		JOINT RightUpLeg
		{
			OFFSET 0.103457 1.857826 -10.548499
			CHANNELS 3 Zrotation Yrotation Xrotation
			JOINT RightLeg
			{
				OFFSET 43.500046 -0.000019 0.000015
				CHANNELS 3 Zrotation Yrotation Xrotation
				JOINT RightFoot
				{
					OFFSET 42.372261 -0.000004 0.000013
					CHANNELS 3 Zrotation Yrotation Xrotation
					JOINT RightToe
					{
						OFFSET 17.299992 -0.000006 0.000004
						CHANNELS 3 Zrotation Yrotation Xrotation
						End Site
						{
							OFFSET 0.000000 0.000000 0.000000
						}
					}
				}
			}
		}
		JOINT Spine
		{
			OFFSET 6.901968 -2.603730 -0.000002
			CHANNELS 3 Zrotation Yrotation Xrotation
			JOINT Spine1
			{
				OFFSET 12.588100 -0.000001 0.000009
				CHANNELS 3 Zrotation Yrotation Xrotation
				JOINT Spine2
				{
					OFFSET 12.343201 0.000005 -0.000005
					CHANNELS 3 Zrotation Yrotation Xrotation
					JOINT Neck
					{
						OFFSET 25.832893 -0.000008 -0.000006
						CHANNELS 3 Zrotation Yrotation Xrotation
						JOINT Head
						{
							OFFSET 11.766606 0.000005 0.000008
							CHANNELS 3 Zrotation Yrotation Xrotation
							End Site
							{
								OFFSET 0.000000 0.000000 0.000000
							}
						}
					}
					JOINT LeftShoulder
					{
						OFFSET 19.745903 -1.480373 6.000100
						CHANNELS 3 Zrotation Yrotation Xrotation
						JOINT LeftArm
						{
							OFFSET 11.284123 -0.000007 -0.000024
							CHANNELS 3 Zrotation Yrotation Xrotation
							JOINT LeftForeArm
							{
								OFFSET 33.000053 0.000004 0.000036
								CHANNELS 3 Zrotation Yrotation Xrotation
								JOINT LeftHand
								{
									OFFSET 25.200006 0.000021 -0.000003
									CHANNELS 3 Zrotation Yrotation Xrotation
									End Site
									{
										OFFSET 0.000000 0.000000 0.000000
									}
								}
							}
						}
					}
					JOINT RightShoulder
					{
						OFFSET 19.746101 -1.480381 -6.000079
						CHANNELS 3 Zrotation Yrotation Xrotation
						JOINT RightArm
						{
							OFFSET 11.284133 -0.000015 -0.000008
							CHANNELS 3 Zrotation Yrotation Xrotation
							JOINT RightForeArm
							{
								OFFSET 33.000099 0.000016 0.000006
								CHANNELS 3 Zrotation Yrotation Xrotation
								JOINT RightHand
								{
									OFFSET 25.199781 0.000142 0.000425
									CHANNELS 3 Zrotation Yrotation Xrotation
									End Site
									{
										OFFSET 0.000000 0.000000 0.000000
									}
								}
							}
						}
					}
				}
			}
		}
	}
}
MOTION
Frames: 10
Frame Time: 0.016667
-149.401568 0.000000 73.240531 0.000000 97.211014 0.000000 -0.388545 89.608673 3.778680 95.822013 5.642944 175.870953 174.055391 -19.350693 173.087649 -51.365060 0.200728 0.874290 73.584434 -3.220273 -8.251625 21.454560 0.003092 0.000019 165.187879 6.514690 -165.005486 -54.742790 2.897030 -4.524322 71.655637 6.789513 10.846296 21.454557 -0.003099 0.000004 8.847892 -1.322278 -1.100920 7.710535 -2.568328 -2.287923 7.392373 -2.582227 -2.272368 -13.232995 7.453843 4.406672 -15.667361 -5.989261 8.724864 -156.723580 -71.763531 -25.322033 -5.757739 45.750857 28.091213 -22.116262 -11.925787 0.929302 17.839332 -6.608251 5.160099 -165.407414 72.460612 16.427004 15.979158 -61.953420 -37.904677 -25.740240 13.750029 -1.074087 20.953723 -20.925799 -49.805387 
-149.585605 0.000000 73.815166 0.000000 95.600352 0.000000 0.132191 89.779554 3.459720 95.943150 5.131413 177.157503 172.638140 -18.239646 174.239921 -53.503976 0.289234 0.528747 74.692882 -2.829545 -8.080152 21.454558 0.003110 0.000019 166.832692 5.423671 -166.869431 -54.023885 4.481154 -6.755391 70.273013 8.862806 11.730727 21.454543 -0.003093 -0.000000 8.773221 -1.184215 -1.136247 7.558589 -2.291739 -2.347742 7.240497 -2.306006 -2.333860 -13.844285 8.306479 4.132971 -15.562185 -6.813342 9.026268 -155.172762 -72.172944 -26.907132 -3.793686 45.756630 29.961930 -23.503273 -12.342763 0.971039 16.320318 -5.199761 10.393249 -164.886708 72.192521 16.963999 13.986554 -61.522510 -36.571432 -27.023746 14.100540 -1.115539 20.513967 -19.741314 -48.878299 
-149.803735 0.000000 74.331863 0.000000 94.058707 0.000000 0.534431 89.516457 3.149661 95.997461 4.372185 178.253368 170.898273 -16.981390 175.252054 -56.377770 0.242371 0.011473 76.137306 -2.220819 -7.618359 21.454558 0.003115 0.000018 168.663366 4.249697 -168.989207 -51.738938 5.519341 -6.622276 69.718964 7.611572 8.393771 21.454541 -0.003086 -0.000001 8.713824 -1.066913 -1.136241 7.437012 -2.058671 -2.338936 7.118973 -2.072893 -2.326463 -14.276371 8.453770 3.979661 -15.767365 -7.240185 9.114658 -154.023919 -72.263486 -28.085029 -2.171722 45.253588 32.253279 -25.155059 -12.607800 1.017270 14.578702 -3.621750 13.752018 -164.270830 72.209801 17.597034 11.967243 -61.078186 -35.122703 -28.413453 14.338380 -1.157542 19.685635 -18.480977 -48.666979 
-150.053924 0.000000 74.794193 0.000000 92.588657 0.000000 0.828630 89.004556 2.845804 95.993297 3.584578 179.219982 169.021050 -15.758215 176.023338 -59.580721 0.198273 -0.642598 77.445710 -1.528342 -7.130881 21.454557 0.003114 0.000016 170.472190 3.133589 -170.844300 -48.710757 5.888034 -5.077305 70.590012 4.681557 3.433494 21.454544 -0.003080 0.000000 8.670416 -0.950527 -1.096832 7.346905 -1.829594 -2.251946 7.028901 -1.843299 -2.240859 -14.523102 8.180863 3.888115 -16.139679 -7.400603 9.045019 -153.292546 -72.227340 -28.836998 -0.918814 44.515671 34.549193 -26.954086 -12.856060 1.065152 12.775873 -2.016165 15.289089 -163.585884 72.347726 18.299953 9.845787 -60.578933 -33.730984 -29.870993 14.531289 -1.198633 18.561686 -17.045535 -48.596526 
-150.334142 0.000000 75.205725 0.000000 91.192065 0.000000 1.024365 88.429024 2.543807 95.957524 2.986238 -179.880146 167.177063 -14.765102 176.475368 -62.708321 0.303770 -1.413781 78.138449 -0.867805 -6.898730 21.454558 0.003112 0.000014 172.021634 2.171705 -171.896669 -45.842186 5.510403 -3.130401 73.259133 1.872321 -0.691655 21.454548 -0.003078 0.000001 8.643743 -0.815239 -1.013984 7.289513 -1.565077 -2.077360 6.971520 -1.577731 -2.067877 -14.582119 7.771575 3.791834 -16.538501 -7.426407 8.869866 -152.936690 -72.253398 -29.201727 -0.004165 43.830320 36.486852 -28.784585 -13.222863 1.118760 11.063368 -0.544539 15.070413 -162.879575 72.442096 19.025018 7.551286 -59.987432 -32.575015 -31.358948 14.747049 -1.240347 17.263129 -15.319988 -48.102163 
-150.642355 0.000000 75.570031 0.000000 89.869681 0.000000 1.133317 87.913389 2.246977 95.974931 2.740884 -179.046063 165.536038 -14.183428 176.581494 -65.490700 0.639516 -2.259334 77.972723 -0.323314 -7.077498 21.454558 0.003113 0.000013 173.130190 1.374239 -172.001840 -43.899068 4.551123 -1.594646 77.482835 0.418152 -2.177250 21.454548 -0.003081 0.000000 8.647121 -0.643787 -0.877457 7.291447 -1.231066 -1.793701 6.973437 -1.242007 -1.786245 -14.435281 7.448327 3.632289 -16.916679 -7.438842 8.638416 -152.927755 -72.451323 -29.205745 0.617564 43.428297 37.708014 -30.536823 -13.781220 1.185854 9.644417 0.659569 13.346428 -162.268876 72.352939 19.653759 4.976208 -59.237507 -31.698817 -32.800794 15.003770 -1.284660 15.904869 -13.179253 -46.833073 
-150.976531 0.000000 75.890680 0.000000 88.623218 0.000000 1.179835 87.334587 1.993360 96.306113 2.797518 -178.522442 164.298493 -14.107996 176.453142 -68.175245 0.985987 -2.980722 77.681865 0.115881 -7.265117 21.454560 0.003112 0.000014 173.927011 0.546994 -172.637580 -43.008816 3.637667 -0.460916 82.228332 -0.179416 -1.851399 21.454548 -0.003086 -0.000001 8.743990 -0.429234 -0.651955 7.480065 -0.815458 -1.330256 7.162014 -0.823605 -1.325318 -13.998306 7.189945 3.394719 -17.598385 -7.520882 8.384759 -153.364929 -72.622973 -28.752618 0.876487 43.298662 37.726624 -32.115811 -14.355377 1.257225 8.909949 1.602600 11.076580 -162.049516 72.035419 19.883054 1.894053 -58.116869 -30.628469 -33.958289 15.121311 -1.319594 14.440671 -10.549374 -45.258318 
-151.334638 0.000000 76.171242 0.000000 87.451694 0.000000 1.188798 86.577573 1.812454 97.101662 3.037711 -178.490908 163.558392 -14.515732 176.242413 -70.986975 1.146383 -3.407215 77.988141 0.488614 -7.069742 21.454562 0.003104 0.000015 174.583550 -0.383280 -175.097093 -43.056547 3.369094 0.444614 86.508475 -0.575651 -1.075564 21.454550 -0.003091 -0.000000 8.973591 -0.172881 -0.326123 7.935326 -0.322979 -0.663350 7.617238 -0.327114 -0.661388 -13.240599 6.926732 3.103341 -18.833062 -7.711704 8.149523 -154.219994 -72.546908 -27.876831 0.693951 43.434839 36.163660 -33.388846 -14.775896 1.312329 9.087928 2.344837 9.207427 -162.459895 71.524490 19.466721 -1.817293 -56.449438 -29.062425 -34.515681 14.936038 -1.323311 12.773146 -7.433102 -43.788749 
-151.714644 0.000000 76.415288 0.000000 86.354985 0.000000 1.163134 85.805962 1.671973 97.935113 3.325446 -178.641584 162.922688 -15.029205 176.148229 -73.581005 1.278632 -3.712557 78.564974 0.826011 -6.750629 21.454562 0.003097 0.000017 174.934477 -0.986694 -178.266284 -43.655191 3.897609 1.054468 89.814336 -0.882676 -0.559253 21.454553 -0.003093 0.000001 9.226455 0.104832 -0.011855 8.440039 0.210305 -0.016062 8.121937 0.210058 -0.017321 -12.413713 6.630995 2.897280 -20.200037 -7.901293 8.003947 -154.868773 -72.229677 -27.218090 0.122816 44.106683 33.240607 -34.072579 -15.143971 1.350420 9.455769 2.752941 7.904542 -163.464403 71.076250 18.437014 -6.143350 -54.467007 -27.502148 -34.020290 14.545559 -1.283753 10.926656 -3.996262 -41.779156 
-152.114516 0.000000 76.626389 0.000000 85.332284 0.000000 1.103615 85.211005 1.535590 98.362778 3.554193 -178.627425 162.012000 -15.279287 176.310404 -75.539451 1.547572 -4.162436 78.958690 1.194000 -6.635499 21.454557 0.003100 0.000018 174.748879 -0.904654 179.398333 -44.415510 5.068630 1.210833 91.867959 -1.013106 -0.671240 21.454552 -0.003093 0.000001 9.382157 0.383662 0.178581 8.752882 0.752778 0.385637 8.434758 0.754940 0.381098 -11.766299 6.304203 2.892531 -21.182995 -8.023926 8.008708 -154.878701 -71.737811 -27.219201 -0.761987 45.505550 29.299908 -33.986645 -15.585136 1.377557 9.323845 2.586361 7.133263 -165.058815 70.935117 16.795562 -10.940533 -52.546323 -26.254760 -32.247098 14.120788 -1.213700 9.110050 -0.483124 -38.864241 
